<svg version="1.1" id="Layer_1" xmlns="http://www.w3.org/2000/svg" xmlns:xlink="http://www.w3.org/1999/xlink" x="0px" y="0px"
	 width="100%" viewBox="0 0 225 316" enable-background="new 0 0 225 316" xml:space="preserve">
<path fill="#D8E1EE" opacity="1.000000" stroke="none" 
	d="
M86.000000,317.000000 
	C57.333332,317.000000 29.166666,317.000000 1.000000,317.000000 
	C1.000000,211.666672 1.000000,106.333336 1.000000,1.000000 
	C76.000000,1.000000 151.000000,1.000000 226.000000,1.000000 
	C226.000000,106.333336 226.000000,211.666672 226.000000,317.000000 
	C179.500000,317.000000 133.000000,317.000000 86.000000,317.000000 
M43.591423,26.797356 
	C32.226593,21.936207 24.228361,27.264072 24.213676,39.742455 
	C24.195089,55.536232 24.196983,71.330086 24.224564,87.123840 
	C24.238615,95.170029 29.045992,100.557350 36.249504,100.704124 
	C44.043610,100.862923 49.616390,95.444382 49.685017,87.256569 
	C49.818775,71.297699 49.793610,55.337307 49.788143,39.377560 
	C49.786472,34.502167 48.385456,30.204399 43.591423,26.797356 
M150.865631,236.380264 
	C150.882248,221.222778 150.920990,206.065292 150.906998,190.907837 
	C150.898926,182.171448 146.072281,176.578644 138.550247,176.464767 
	C130.925262,176.349335 125.321449,182.231018 125.256950,190.830170 
	C125.138275,206.653152 125.172203,222.477707 125.226662,238.301315 
	C125.244286,243.424210 127.082726,247.821304 131.636795,250.533249 
	C135.554672,252.866348 139.724045,253.458786 143.963501,251.114746 
	C149.426941,248.093948 151.424561,243.360260 150.865631,236.380264 
M49.809074,279.486816 
	C49.808826,267.344330 49.825874,255.201813 49.789631,243.059448 
	C49.784206,241.241791 49.725052,239.383804 49.354481,237.614929 
	C47.920994,230.772369 42.330711,226.545654 35.713360,227.146744 
	C29.110201,227.746552 24.266960,232.971222 24.235901,239.908188 
	C24.160683,256.707642 24.161009,273.508057 24.257246,290.307373 
	C24.296103,297.090149 28.703411,302.120087 34.762741,302.756927 
	C42.106495,303.528687 47.824749,299.854156 49.121490,292.872070 
	C49.870724,288.837952 49.613140,284.616821 49.809074,279.486816 
M24.211800,168.499969 
	C24.215527,175.154373 24.186625,181.809006 24.231506,188.463135 
	C24.283836,196.221680 29.286263,201.677673 36.541264,201.974426 
	C43.383282,202.254288 49.432396,197.115326 49.585320,189.664444 
	C49.933418,172.704468 49.956215,155.726501 49.577152,138.767792 
	C49.394596,130.600571 43.650970,125.867218 35.936867,126.204033 
	C28.749022,126.517876 24.348017,131.409210 24.243143,139.551788 
	C24.123173,148.866440 24.213285,158.183792 24.211800,168.499969 
M94.236465,300.952484 
	C98.351273,298.297882 100.467255,294.372009 100.504639,289.626465 
	C100.634590,273.128387 100.703995,256.626526 100.477898,240.130447 
	C100.375282,232.643280 94.302002,226.996826 87.349472,227.123108 
	C80.027641,227.256088 74.931007,232.566269 74.883392,240.530914 
	C74.785759,256.862671 74.766663,273.196198 74.899933,289.527527 
	C74.986168,300.094971 83.838142,305.598419 94.236465,300.952484 
M100.568367,178.476990 
	C100.568901,166.322479 100.670670,154.166504 100.496552,142.014496 
	C100.454666,139.090698 99.937119,136.006714 98.869270,133.299774 
	C96.725365,127.865135 91.123734,125.300690 84.872833,126.325188 
	C80.056877,127.114510 75.055229,132.318832 75.003799,137.478195 
	C74.827881,155.124390 74.798828,172.774826 75.000702,190.420380 
	C75.066040,196.132172 79.797981,200.663589 85.821404,201.841385 
	C90.774063,202.809830 97.090576,199.854401 98.662605,194.600571 
	C100.100319,189.795639 99.993797,184.528671 100.568367,178.476990 
M198.165833,248.623535 
	C198.652832,247.950974 199.191040,247.309341 199.618820,246.601013 
	C203.400223,240.339645 201.457230,232.016083 195.477112,228.783249 
	C188.815735,225.182083 181.098267,227.537094 177.621536,234.231934 
	C175.041702,239.199677 176.214890,245.469101 180.430954,249.245010 
	C185.334076,253.636246 191.226700,253.608246 198.165833,248.623535 
M148.057983,298.473175 
	C152.390854,291.545441 151.865021,285.319519 146.545334,280.562744 
	C142.569443,277.007568 135.074265,276.758759 130.860199,280.042023 
	C124.749146,284.803284 123.790688,292.648956 128.604523,298.506439 
	C133.312576,304.235168 141.347641,304.431549 148.057983,298.473175 
M195.472702,301.213684 
	C196.127380,300.700989 196.828781,300.237549 197.429489,299.667938 
	C202.886047,294.493896 203.018433,285.989319 197.739090,280.992523 
	C192.509354,276.042694 183.822052,276.744720 179.103333,282.498474 
	C175.432343,286.974701 175.317703,292.792236 178.802551,297.762421 
	C182.361557,302.838379 187.481125,304.079163 195.472702,301.213684 
z"/>
<path fill="#1D5CCD" opacity="1.000000" stroke="none" 
	d="
M43.887516,27.015739 
	C48.385456,30.204399 49.786472,34.502167 49.788143,39.377560 
	C49.793610,55.337307 49.818775,71.297699 49.685017,87.256569 
	C49.616390,95.444382 44.043610,100.862923 36.249504,100.704124 
	C29.045992,100.557350 24.238615,95.170029 24.224564,87.123840 
	C24.196983,71.330086 24.195089,55.536232 24.213676,39.742455 
	C24.228361,27.264072 32.226593,21.936207 43.887516,27.015739 
z"/>
<path fill="#1C5BCD" opacity="1.000000" stroke="none" 
	d="
M150.865143,236.857391 
	C151.424561,243.360260 149.426941,248.093948 143.963501,251.114746 
	C139.724045,253.458786 135.554672,252.866348 131.636795,250.533249 
	C127.082726,247.821304 125.244286,243.424210 125.226662,238.301315 
	C125.172203,222.477707 125.138275,206.653152 125.256950,190.830170 
	C125.321449,182.231018 130.925262,176.349335 138.550247,176.464767 
	C146.072281,176.578644 150.898926,182.171448 150.906998,190.907837 
	C150.920990,206.065292 150.882248,221.222778 150.865143,236.857391 
z"/>
<path fill="#1D5CCD" opacity="1.000000" stroke="none" 
	d="
M49.808884,279.983337 
	C49.613140,284.616821 49.870724,288.837952 49.121490,292.872070 
	C47.824749,299.854156 42.106495,303.528687 34.762741,302.756927 
	C28.703411,302.120087 24.296103,297.090149 24.257246,290.307373 
	C24.161009,273.508057 24.160683,256.707642 24.235901,239.908188 
	C24.266960,232.971222 29.110201,227.746552 35.713360,227.146744 
	C42.330711,226.545654 47.920994,230.772369 49.354481,237.614929 
	C49.725052,239.383804 49.784206,241.241791 49.789631,243.059448 
	C49.825874,255.201813 49.808826,267.344330 49.808884,279.983337 
z"/>
<path fill="#1D5CCD" opacity="1.000000" stroke="none" 
	d="
M24.211958,167.999969 
	C24.213285,158.183792 24.123173,148.866440 24.243143,139.551788 
	C24.348017,131.409210 28.749022,126.517876 35.936867,126.204033 
	C43.650970,125.867218 49.394596,130.600571 49.577152,138.767792 
	C49.956215,155.726501 49.933418,172.704468 49.585320,189.664444 
	C49.432396,197.115326 43.383282,202.254288 36.541264,201.974426 
	C29.286263,201.677673 24.283836,196.221680 24.231506,188.463135 
	C24.186625,181.809006 24.215527,175.154373 24.211958,167.999969 
z"/>
<path fill="#1A5ACC" opacity="1.000000" stroke="none" 
	d="
M93.914001,301.160522 
	C83.838142,305.598419 74.986168,300.094971 74.899933,289.527527 
	C74.766663,273.196198 74.785759,256.862671 74.883392,240.530914 
	C74.931007,232.566269 80.027641,227.256088 87.349472,227.123108 
	C94.302002,226.996826 100.375282,232.643280 100.477898,240.130447 
	C100.703995,256.626526 100.634590,273.128387 100.504639,289.626465 
	C100.467255,294.372009 98.351273,298.297882 93.914001,301.160522 
z"/>
<path fill="#1A5ACC" opacity="1.000000" stroke="none" 
	d="
M100.568077,178.971146 
	C99.993797,184.528671 100.100319,189.795639 98.662605,194.600571 
	C97.090576,199.854401 90.774063,202.809830 85.821404,201.841385 
	C79.797981,200.663589 75.066040,196.132172 75.000702,190.420380 
	C74.798828,172.774826 74.827881,155.124390 75.003799,137.478195 
	C75.055229,132.318832 80.056877,127.114510 84.872833,126.325188 
	C91.123734,125.300690 96.725365,127.865135 98.869270,133.299774 
	C99.937119,136.006714 100.454666,139.090698 100.496552,142.014496 
	C100.670670,154.166504 100.568901,166.322479 100.568077,178.971146 
z"/>
<path fill="#1F5DCE" opacity="1.000000" stroke="none" 
	d="
M197.915802,248.893356 
	C191.226700,253.608246 185.334076,253.636246 180.430954,249.245010 
	C176.214890,245.469101 175.041702,239.199677 177.621536,234.231934 
	C181.098267,227.537094 188.815735,225.182083 195.477112,228.783249 
	C201.457230,232.016083 203.400223,240.339645 199.618820,246.601013 
	C199.191040,247.309341 198.652832,247.950974 197.915802,248.893356 
z"/>
<path fill="#1F5DCE" opacity="1.000000" stroke="none" 
	d="
M147.780670,298.720764 
	C141.347641,304.431549 133.312576,304.235168 128.604523,298.506439 
	C123.790688,292.648956 124.749146,284.803284 130.860199,280.042023 
	C135.074265,276.758759 142.569443,277.007568 146.545334,280.562744 
	C151.865021,285.319519 152.390854,291.545441 147.780670,298.720764 
z"/>
<path fill="#1F5DCE" opacity="1.000000" stroke="none" 
	d="
M195.156708,301.431580 
	C187.481125,304.079163 182.361557,302.838379 178.802551,297.762421 
	C175.317703,292.792236 175.432343,286.974701 179.103333,282.498474 
	C183.822052,276.744720 192.509354,276.042694 197.739090,280.992523 
	C203.018433,285.989319 202.886047,294.493896 197.429489,299.667938 
	C196.828781,300.237549 196.127380,300.700989 195.156708,301.431580 
z"/>
</svg>